<!DOCTYPE svg PUBLIC "-//W3C//DTD SVG 1.1//EN" "http://www.w3.org/Graphics/SVG/1.1/DTD/svg11.dtd">
<!-- Uploaded to: SVG Repo, www.svgrepo.com, Transformed by: SVG Repo Mixer Tools -->
<svg width="800px" height="800px" viewBox="0 0 16.00 16.00" xmlns="http://www.w3.org/2000/svg" fill="#f3f4f6" stroke="#f3f4f6" stroke-width="0.032">
<g id="SVGRepo_bgCarrier" stroke-width="0"/>
<g id="SVGRepo_tracerCarrier" stroke-linecap="round" stroke-linejoin="round" stroke="#CCCCCC" stroke-width="0.22400000000000003"/>
<g id="SVGRepo_iconCarrier">
<path d="M13.5 11h-1.729L8.438 6H9.5l.5-.5v-4L9.5 1h-4l-.5.5v4l.5.5h1.062l-3.333 5H1.5l-.5.5v3l.5.5h3l.5-.5v-3l-.5-.5h-.068L7.5 6.4l3.068 4.6H10.5l-.5.5v3l.5.5h3l.5-.5v-3l-.5-.5zM6 5V2h3v3H6zm-2 7v2H2v-2h2zm9 2h-2v-2h2v2z"/>
</g>
</svg>